<svg xmlns="http://www.w3.org/2000/svg" width="100" height="100" viewBox="0 0 100 100">
<!--三叉戟根部右半-->
<path d="M 50 90 L 55 85 C 51 80 51 70 51 70 L 50 70 Z" fill="#FFC0E0"/>
<!--三叉戟根部左半-->
<path d="M 50 90 L 45 85 C 49 80 49 70 49 70 L 50 70 Z" fill="#FFC0E0"/>
<!--三叉戟主体棍子-->
<path d="M 51 70 L 51 20 L 49 20 L 49 70 Z" fill="#FFC0E0"/>
<!--三叉戟中间-->
<path d="M 50 20 C 51 22 52 23 53 23 S 56 22 56 20 S 53 13 50 10 Z" fill="#FFC0E0"/>
<path d="M 50 20 C 49 22 48 23 47 23 S 44 22 44 20 S 47 13 50 10 Z" fill="#FFC0E0"/>
<!--? 两边不画了（）-->
<!--恶魔翅膀右侧-->
<path d="M 53 45 C 53 39 55 35 60 35 C 60 40 72 39 85 35 
    C 83 36 81 38 82 42 C 79 44 75 46 75 52
    C 70 47 65 48 60 50 Q 60 45 53 45
Z" fill="#FFC0E0"/>
<!--恶魔翅膀左侧-->
<path d="M 47 45 C 47 39 45 35 40 35 C 40 40 28 39 15 35
    C 17 36 19 38 18 42 C 21 44 25 46 25 52
    C 30 47 35 48 40 50 Q 40 45 47 45
Z" fill="#FFC0E0"/>
<!--其他的乱七八糟的东西-->
<circle cx="50" cy="43" r="20" fill="none" stroke-width="1" stroke="#FFC0E0"/>
</svg>